<svg width="373" height="100" viewBox="0 0 373 100" fill="none" xmlns="http://www.w3.org/2000/svg">
<path d="M10.4374 19.901C10.4374 14.4328 14.8702 10 20.3384 10H80.5364C86.0046 10 90.4374 14.4328 90.4374 19.901V80.099C90.4374 85.5672 86.0046 90 80.5364 90H20.3384C14.8702 90 10.4374 85.5672 10.4374 80.099V19.901Z" fill="#338C85"/>
<path d="M40.6996 80.1483C37.9215 80.1483 35.6379 79.4883 33.8486 78.1684C32.0594 76.8059 30.741 75.0176 29.8934 72.8035C29.0459 70.5468 28.6221 68.0773 28.6221 65.3948C28.6221 64.2026 28.7163 63.0104 28.9046 61.8182C29.1401 60.5834 29.4697 59.4551 29.8934 58.4332C30.3643 57.3687 30.8352 56.5385 31.306 55.9424H27.4921V50.1942H58.9924C60.2637 50.1942 61.4409 50.4071 62.5238 50.8329C63.6539 51.2587 64.6662 51.7909 65.5609 52.4296C66.738 53.3238 67.7033 54.4308 68.4566 55.7507C69.21 57.0707 69.7515 58.5609 70.0811 60.2215C70.4578 61.8395 70.6461 63.5639 70.6461 65.3948C70.6461 68.0773 70.2223 70.5468 69.3748 72.8035C68.5273 75.0176 67.2089 76.8059 65.4196 78.1684C63.6774 79.4883 61.3938 80.1483 58.5686 80.1483C57.2973 80.1483 56.1437 79.9567 55.1078 79.5735C54.119 79.1903 53.2479 78.7006 52.4946 78.1045C51.7883 77.4658 51.1997 76.7633 50.7289 75.9969C50.258 75.2305 49.9049 74.464 49.6694 73.6976C49.3869 74.464 49.0102 75.2305 48.5394 75.9969C48.0685 76.7633 47.4564 77.4658 46.703 78.1045C45.9967 78.7006 45.1492 79.1903 44.1604 79.5735C43.1716 79.9567 42.018 80.1483 40.6996 80.1483ZM40.6996 73.4422C41.9238 73.4422 42.9126 73.1441 43.666 72.548C44.4194 71.9093 45.0079 71.079 45.4317 70.0572C45.8555 68.9927 46.1615 67.8218 46.3499 66.5444C46.5382 65.2671 46.6324 63.9471 46.6324 62.5846H52.6358C52.6829 63.9471 52.7771 65.2671 52.9183 66.5444C53.1067 67.8218 53.4127 68.9927 53.8365 70.0572C54.2603 71.079 54.8489 71.9093 55.6022 72.548C56.3556 73.1441 57.3444 73.4422 58.5686 73.4422C60.3108 73.4422 61.5821 72.6545 62.3826 71.079C63.2301 69.5036 63.6539 67.6089 63.6539 65.3948C63.6539 64.4155 63.5597 63.3936 63.3714 62.3291C63.183 61.2647 62.877 60.2641 62.4532 59.3274C62.0294 58.348 61.4409 57.5603 60.6875 56.9642C59.9812 56.3256 59.0866 56.0062 58.0036 56.0062H41.6178C40.4406 56.0062 39.4518 56.3256 38.6514 56.9642C37.898 57.5603 37.2859 58.348 36.815 59.3274C36.3913 60.2641 36.0852 61.286 35.8969 62.393C35.7085 63.4575 35.6143 64.4581 35.6143 65.3948C35.6143 67.6089 36.0146 69.5036 36.815 71.079C37.6155 72.6545 38.9103 73.4422 40.6996 73.4422ZM49.6694 54.7927L46.5618 50.322C46.6089 49.9388 46.6324 49.5769 46.6324 49.2362C46.6795 48.8956 46.703 48.555 46.703 48.2143C46.703 46.2983 46.1615 44.9358 45.0786 44.1268C43.9956 43.3178 42.842 42.9133 41.6178 42.9133C40.2052 42.9133 39.0751 43.2965 38.2276 44.0629C37.4271 44.7868 37.0269 45.7448 37.0269 46.937C37.0269 47.7034 37.1682 48.4059 37.4507 49.0446C37.7332 49.6407 38.0628 50.1517 38.4395 50.5774L33.5661 52.9406C32.8598 52.089 32.2477 51.1097 31.7298 50.0026C31.2118 48.8956 30.9529 47.7034 30.9529 46.426C30.9529 44.6377 31.3766 43.041 32.2242 41.6359C33.0717 40.2308 34.2724 39.1238 35.8262 38.3148C37.4271 37.5058 39.2635 37.1013 41.3353 37.1013C43.8308 37.1013 46.0909 37.7613 48.1156 39.0812C50.1874 40.4012 51.5764 42.3811 52.2827 45.0209C52.3769 45.2338 52.4239 45.468 52.4239 45.7235C52.4239 45.979 52.4239 46.2344 52.4239 46.4899C52.4239 47.4692 52.2591 48.4272 51.9295 49.364C51.5999 50.2581 51.1997 51.1523 50.7289 52.0464C50.3051 52.9406 49.9519 53.856 49.6694 54.7927ZM65.4902 53.5792L60.5462 50.9607C61.0642 50.5349 61.4879 49.9388 61.8175 49.1724C62.1942 48.4059 62.3826 47.6608 62.3826 46.937C62.3826 45.7448 61.9588 44.7868 61.1113 44.0629C60.3108 43.2965 59.1572 42.9133 57.6505 42.9133C56.4733 42.9133 55.3197 43.3178 54.1897 44.1268C53.1067 44.9358 52.5652 46.2983 52.5652 48.2143C52.5652 48.555 52.5652 48.8956 52.5652 49.2362C52.6123 49.5769 52.6594 49.9388 52.7065 50.322L49.6694 54.7927C49.3398 53.856 48.9396 52.9406 48.4687 52.0464C47.9979 51.1523 47.5977 50.2581 47.2681 49.364C46.9385 48.4272 46.7737 47.4692 46.7737 46.4899C46.7737 46.2344 46.7737 45.979 46.7737 45.7235C46.8207 45.468 46.8678 45.2338 46.9149 45.0209C47.6683 42.3811 49.0573 40.4012 51.082 39.0812C53.1538 37.7613 55.4139 37.1013 57.8623 37.1013C59.9812 37.1013 61.8175 37.5058 63.3714 38.3148C64.9723 39.1238 66.2201 40.2521 67.1147 41.6998C68.0093 43.1475 68.4566 44.808 68.4566 46.6815C68.4566 47.8737 68.1977 49.0872 67.6797 50.322C67.1618 51.5568 66.4319 52.6425 65.4902 53.5792Z" fill="#D9F0ED"/>
<path fill-rule="evenodd" clip-rule="evenodd" d="M33.3432 78.7201L33.3385 78.7165C31.4285 77.262 30.0341 75.3606 29.145 73.038L29.1435 73.034C28.2649 70.6945 27.8301 68.1461 27.8301 65.395C27.8301 64.1686 27.927 62.9425 28.1206 61.7171L28.1222 61.7069L28.1242 61.6967C28.3668 60.424 28.7083 59.2515 29.1519 58.1819L29.1549 58.1746L29.1581 58.1674C29.4044 57.6107 29.6547 57.1067 29.9102 56.6588H26.7001V49.4782H30.6712C30.33 48.5116 30.1609 47.4931 30.1609 46.4262C30.1609 44.5324 30.6107 42.8153 31.5289 41.2932C32.4473 39.7707 33.7526 38.5682 35.4311 37.6943L35.4355 37.692L35.4399 37.6897C37.1736 36.8137 39.1461 36.3853 41.3353 36.3853C43.9957 36.3853 46.4167 37.0918 48.5754 38.4981C48.94 38.7306 49.2843 38.9815 49.6085 39.2505C49.9265 38.9824 50.2632 38.7323 50.6189 38.5004L50.6224 38.4981L50.6259 38.4959C52.8262 37.0941 55.2446 36.3853 57.8624 36.3853C60.0927 36.3853 62.069 36.8114 63.7623 37.692C65.489 38.5655 66.8409 39.7886 67.8062 41.3506C68.775 42.9183 69.2488 44.702 69.2488 46.6817C69.2488 47.9696 68.9687 49.269 68.4204 50.5762C68.0836 51.3791 67.6614 52.1256 67.1534 52.8142C67.9354 53.5771 68.6041 54.4476 69.1606 55.4224C69.9531 56.811 70.5168 58.3672 70.8587 60.0846C71.2462 61.7529 71.4383 63.5237 71.4383 65.395C71.4383 68.1461 71.0035 70.6945 70.1249 73.034L70.1234 73.038C69.2343 75.3606 67.8399 77.262 65.9299 78.7165L65.9284 78.7176C64.0116 80.1699 61.5333 80.8647 58.5687 80.8647C57.2084 80.8647 55.9512 80.6595 54.808 80.2366L54.8019 80.2344L54.7959 80.232C53.7365 79.8214 52.7934 79.2929 51.9731 78.6437L51.9532 78.628L51.9346 78.6112C51.1778 77.9269 50.5442 77.1712 50.0365 76.3449C49.8935 76.1121 49.7603 75.8786 49.6371 75.6445C49.5102 75.8784 49.375 76.1119 49.2319 76.3449C48.7186 77.1804 48.0543 77.9411 47.2449 78.6272L47.2436 78.6283C46.4632 79.287 45.536 79.8199 44.4725 80.232C43.3655 80.661 42.1018 80.8647 40.6997 80.8647C37.7777 80.8647 35.3059 80.1679 33.348 78.7236L33.3432 78.7201ZM49.2194 74.7565C49.3894 74.4036 49.5394 74.0507 49.6695 73.6978C49.779 74.0543 49.914 74.4107 50.0744 74.7671C50.2589 75.1771 50.4771 75.5871 50.7289 75.9971C51.1998 76.7635 51.7884 77.466 52.4947 78.1047C53.248 78.7008 54.1191 79.1905 55.1079 79.5737C56.1438 79.9569 57.2974 80.1485 58.5687 80.1485C61.3939 80.1485 63.6775 79.4885 65.4197 78.1686C67.2089 76.8061 68.5273 75.0178 69.3749 72.8037C70.2224 70.547 70.6462 68.0774 70.6462 65.395C70.6462 63.5641 70.4579 61.8397 70.0812 60.2217C69.7516 58.5611 69.2101 57.0709 68.4567 55.7509C67.9578 54.8769 67.366 54.0961 66.6813 53.4088C66.502 53.2288 66.3164 53.0552 66.1243 52.8881C66.2851 52.6956 66.4381 52.4977 66.5834 52.2943C67.0181 51.6856 67.3836 51.0283 67.6798 50.3222C68.1977 49.0874 68.4567 47.8739 68.4567 46.6817C68.4567 44.8082 68.0094 43.1477 67.1148 41.7C66.2201 40.2523 64.9724 39.124 63.3715 38.315C61.8176 37.506 59.9813 37.1015 57.8624 37.1015C55.414 37.1015 53.1539 37.7615 51.0821 39.0814C50.7627 39.2896 50.4592 39.5142 50.1715 39.7552C49.9781 39.9173 49.7918 40.0868 49.6126 40.2637C49.4325 40.0881 49.2448 39.9199 49.0496 39.759C48.7554 39.5165 48.4441 39.2907 48.1157 39.0814C46.091 37.7615 43.8309 37.1015 41.3353 37.1015C39.2636 37.1015 37.4272 37.506 35.8263 38.315C34.2725 39.124 33.0718 40.231 32.2243 41.6361C31.3767 43.0412 30.953 44.6379 30.953 46.4262C30.953 47.5042 31.1374 48.5215 31.5062 49.4782C31.5745 49.6551 31.649 49.83 31.7299 50.0028C31.7599 50.0671 31.7903 50.131 31.8211 50.1944H27.4922V55.9425H31.3061C31.1404 56.1523 30.9747 56.3911 30.809 56.6588C30.5039 57.152 30.1987 57.7435 29.8935 58.4334C29.4698 59.4553 29.1402 60.5836 28.9047 61.8184C28.7164 63.0106 28.6222 64.2028 28.6222 65.395C28.6222 68.0774 29.046 70.547 29.8935 72.8037C30.7411 75.0178 32.0595 76.8061 33.8487 78.1686C35.638 79.4885 37.9216 80.1485 40.6997 80.1485C42.0181 80.1485 43.1717 79.9569 44.1605 79.5737C45.1493 79.1905 45.9968 78.7008 46.7031 78.1047C47.4565 77.466 48.0686 76.7635 48.5395 75.9971C48.7935 75.5836 49.0201 75.17 49.2194 74.7565ZM60.2013 50.2618C60.4473 50.2899 60.6893 50.3268 60.9274 50.3725C60.9677 50.3802 61.0078 50.3882 61.0478 50.3964C61.0628 50.3995 61.0778 50.4026 61.0927 50.4057C61.2483 50.2127 61.3924 49.9991 61.5252 49.7648C61.6297 49.5802 61.7272 49.3828 61.8176 49.1725C62.1943 48.4061 62.3827 47.661 62.3827 46.9372C62.3827 45.745 61.9589 44.787 61.1113 44.0631C60.3109 43.2967 59.1573 42.9135 57.6505 42.9135C56.4734 42.9135 55.3198 43.318 54.1897 44.127C53.774 44.4376 53.438 44.8297 53.1819 45.3035C53.1096 45.4371 53.0438 45.5771 52.9842 45.7237C52.8874 45.962 52.8074 46.2175 52.7441 46.4901C52.6249 47.004 52.5653 47.5788 52.5653 48.2145V49.2364C52.5763 49.3158 52.5872 49.3964 52.5982 49.4782C52.6019 49.5052 52.6055 49.5324 52.6091 49.5597C52.6095 49.5629 52.61 49.5661 52.6104 49.5694C52.6173 49.6209 52.6241 49.6728 52.6309 49.7252C52.6509 49.8778 52.6708 50.0342 52.6908 50.1944H58.9925C59.4054 50.1944 59.8083 50.2169 60.2013 50.2618ZM53.3961 49.4782H58.9925C59.5844 49.4782 60.1603 49.521 60.7195 49.6074C60.8477 49.4024 60.9681 49.1717 61.0794 48.9129L61.0862 48.8971L61.0938 48.8816C61.4326 48.1924 61.5906 47.5461 61.5906 46.9372C61.5906 45.9137 61.2351 45.1541 60.5675 44.5838L60.551 44.5698L60.5355 44.5549C59.9253 43.9706 59.0065 43.6298 57.6505 43.6298C56.6912 43.6298 55.7081 43.9552 54.688 44.6838C53.8677 45.3002 53.3574 46.4062 53.3574 48.2145V49.1919C53.3703 49.2858 53.3832 49.3812 53.3961 49.4782ZM46.0598 45.2548C45.8071 44.8028 45.4801 44.4269 45.0787 44.127C43.9957 43.318 42.8421 42.9135 41.6179 42.9135C40.2053 42.9135 39.0752 43.2967 38.2277 44.0631C37.4272 44.787 37.027 45.745 37.027 46.9372C37.027 47.7036 37.1683 48.4061 37.4508 49.0448C37.5218 49.1946 37.5958 49.3391 37.6727 49.4782C37.7713 49.6563 37.8748 49.8257 37.9832 49.9862C38.0312 50.0573 38.0802 50.1268 38.1302 50.1944H46.5768C46.5901 50.0735 46.6011 49.9547 46.6097 49.8381C46.6166 49.7432 46.622 49.6498 46.6258 49.5578C46.6259 49.5548 46.626 49.5518 46.6261 49.5489C46.6271 49.5252 46.6279 49.5016 46.6286 49.4782C46.6312 49.3964 46.6325 49.3158 46.6325 49.2364C46.6796 48.8958 46.7031 48.5552 46.7031 48.2145C46.7031 47.5788 46.6435 47.004 46.5243 46.4901C46.461 46.2175 46.381 45.962 46.2842 45.7237C46.2734 45.6972 46.2625 45.671 46.2513 45.6449C46.1931 45.5091 46.1292 45.3791 46.0598 45.2548ZM41.6179 56.0064C40.4407 56.0064 39.4519 56.3258 38.6515 56.9644C37.8981 57.5605 37.286 58.3482 36.8151 59.3275C36.3913 60.2643 36.0853 61.2862 35.8969 62.3932C35.7086 63.4577 35.6144 64.4583 35.6144 65.395C35.6144 67.6091 36.0147 69.5038 36.8151 71.0792C37.6156 72.6546 38.9104 73.4424 40.6997 73.4424C41.9239 73.4424 42.9127 73.1443 43.6661 72.5482C44.4195 71.9095 45.008 71.0792 45.4318 70.0574C45.8556 68.9929 46.1616 67.822 46.35 66.5446C46.5383 65.2673 46.6325 63.9473 46.6325 62.5848H52.6359C52.683 63.9473 52.7772 65.2673 52.9184 66.5446C53.1068 67.822 53.4128 68.9929 53.8366 70.0574C54.2604 71.0792 54.8489 71.9095 55.6023 72.5482C56.3557 73.1443 57.3445 73.4424 58.5687 73.4424C60.3109 73.4424 61.5822 72.6546 62.3827 71.0792C63.2302 69.5038 63.654 67.6091 63.654 65.395C63.654 64.4157 63.5598 63.3938 63.3715 62.3293C63.1831 61.2649 62.8771 60.2643 62.4533 59.3275C62.0295 58.3482 61.4409 57.5605 60.6876 56.9644C59.9813 56.3258 59.0867 56.0064 58.0037 56.0064H41.6179ZM56.1339 72.017C56.7116 72.4699 57.4979 72.7261 58.5687 72.7261C59.3016 72.7261 59.8941 72.5625 60.3811 72.2607C60.8729 71.956 61.308 71.4787 61.6629 70.7802L61.6666 70.773L61.6704 70.7659C62.4534 69.3104 62.8619 67.5283 62.8619 65.395C62.8619 64.4572 62.7717 63.4732 62.5893 62.4425C62.41 61.4287 62.1195 60.4815 61.7202 59.5987L61.7179 59.5937L61.7157 59.5885C61.3307 58.6989 60.8093 58.0125 60.166 57.5035L60.1461 57.4878L60.1275 57.4709C59.583 56.9785 58.8961 56.7227 58.0037 56.7227H41.6179C40.6124 56.7227 39.816 56.9905 39.1755 57.5015L39.1731 57.5035C38.524 58.017 37.9769 58.71 37.545 59.6059C37.1488 60.4834 36.8592 61.4478 36.6798 62.5021L36.6791 62.5064C36.4964 63.5389 36.4065 64.5013 36.4065 65.395C36.4065 67.5334 36.7933 69.3208 37.5349 70.7802C37.8882 71.4756 38.327 71.952 38.8287 72.2573C39.327 72.5604 39.9388 72.7261 40.6997 72.7261C41.7705 72.7261 42.5568 72.47 43.1345 72.017C43.7796 71.4672 44.3023 70.7395 44.6883 69.8102C45.0897 68.8009 45.3832 67.6819 45.5648 66.45C45.7483 65.2057 45.8404 63.9175 45.8404 62.5848V61.8685H53.4036L53.4276 62.5624C53.474 63.9054 53.5666 65.2051 53.7053 66.4616C53.8871 67.6889 54.18 68.8041 54.5801 69.8102C54.9661 70.7394 55.4888 71.4672 56.1339 72.017ZM45.8362 49.4782C45.839 49.396 45.8404 49.3154 45.8404 49.2364V49.1918L45.8465 49.1476C45.8896 48.8362 45.911 48.5252 45.911 48.2145C45.911 46.4017 45.3981 45.2947 44.5742 44.6792C43.6111 43.9597 42.6312 43.6298 41.6179 43.6298C40.375 43.6298 39.4605 43.9613 38.7878 44.5696C38.1603 45.137 37.8191 45.9011 37.8191 46.9372C37.8191 47.6195 37.9439 48.2279 38.1827 48.7708C38.3045 49.0271 38.4342 49.2626 38.571 49.4782H45.8362Z" fill="#D9F0ED"/>
<path d="M26.6752 31.7822L26.6752 15.5446L34.596 15.5446V31.7822L26.6752 31.7822Z" fill="#D9F0ED"/>
<path fill-rule="evenodd" clip-rule="evenodd" d="M49.7496 15.5445L17.17 37.2615V46.7808L49.6987 25.0977L81.3285 46.7138V37.12L49.7581 15.5444L49.7538 15.5508L49.7496 15.5445Z" fill="#D9F0ED"/>
<path d="M121.317 41.392C119.781 40.7947 118.459 39.8773 117.349 38.64C116.24 37.4027 115.387 36.016 114.789 34.48C114.192 32.9013 113.893 31.3653 113.893 29.872C113.893 26.3307 114.768 23.472 116.517 21.296C118.309 19.0773 120.635 17.456 123.493 16.432C126.395 15.408 129.509 14.896 132.837 14.896C136.208 14.896 139.323 15.408 142.181 16.432C145.04 17.456 147.344 19.0773 149.093 21.296C150.885 23.472 151.781 26.3307 151.781 29.872C151.781 31.3653 151.483 32.9013 150.885 34.48C150.288 36.016 149.435 37.4027 148.325 38.64C147.216 39.8773 145.893 40.7947 144.357 41.392H138.405V37.296C140.453 36.4853 141.84 35.44 142.565 34.16C143.291 32.8373 143.653 31.408 143.653 29.872C143.653 28.464 143.205 27.2693 142.309 26.288C141.456 25.264 140.219 24.496 138.597 23.984C136.976 23.4293 135.056 23.152 132.837 23.152C130.619 23.152 128.699 23.4293 127.077 23.984C125.456 24.5387 124.197 25.328 123.301 26.352C122.405 27.3333 121.957 28.5067 121.957 29.872C121.957 31.408 122.32 32.8373 123.045 34.16C123.771 35.44 125.157 36.4853 127.205 37.296V41.392H121.317ZM125.477 78C122.789 78 120.592 77.3173 118.885 75.952C117.221 74.544 115.984 72.7093 115.173 70.448C114.405 68.144 114.021 65.6267 114.021 62.896C114.021 61.872 114.107 60.848 114.277 59.824C114.448 58.8 114.683 57.84 114.981 56.944C115.28 56.048 115.579 55.3013 115.877 54.704H112.933V47.728H141.669C142.907 47.728 144.08 47.984 145.189 48.496C146.299 48.9653 147.28 49.5627 148.133 50.288C149.157 51.184 149.989 52.2507 150.629 53.488C151.312 54.6827 151.803 56.0693 152.101 57.648C152.443 59.184 152.613 60.9333 152.613 62.896C152.613 65.6267 152.229 68.144 151.461 70.448C150.693 72.7093 149.477 74.544 147.813 75.952C146.149 77.3173 143.952 78 141.221 78C140.283 78 139.387 77.872 138.533 77.616C137.723 77.3173 136.976 76.912 136.293 76.4C135.611 75.888 135.013 75.2907 134.501 74.608C134.032 73.8827 133.648 73.0933 133.349 72.24C133.051 73.0933 132.645 73.8827 132.133 74.608C131.664 75.2907 131.088 75.888 130.405 76.4C129.723 76.912 128.976 77.3173 128.165 77.616C127.355 77.872 126.459 78 125.477 78ZM125.477 69.616C126.331 69.616 127.035 69.36 127.589 68.848C128.187 68.336 128.656 67.632 128.997 66.736C129.381 65.7973 129.637 64.752 129.765 63.6C129.936 62.4053 130.021 61.1467 130.021 59.824H136.677C136.677 61.1467 136.741 62.4053 136.869 63.6C137.04 64.752 137.296 65.7973 137.637 66.736C138.021 67.632 138.491 68.336 139.045 68.848C139.643 69.36 140.368 69.616 141.221 69.616C142.501 69.616 143.419 68.9547 143.973 67.632C144.528 66.3093 144.805 64.7307 144.805 62.896C144.805 61.9573 144.72 61.0187 144.549 60.08C144.379 59.1413 144.101 58.288 143.717 57.52C143.376 56.7093 142.928 56.0693 142.373 55.6C141.819 55.088 141.179 54.832 140.453 54.832H126.245C125.477 54.832 124.816 55.088 124.261 55.6C123.707 56.0693 123.237 56.7093 122.853 57.52C122.512 58.288 122.256 59.1413 122.085 60.08C121.915 61.0187 121.829 61.9573 121.829 62.896C121.829 64.7307 122.107 66.3093 122.661 67.632C123.216 68.9547 124.155 69.616 125.477 69.616ZM133.349 53.36L129.957 47.728C130 47.472 130.021 47.2373 130.021 47.024C130.064 46.768 130.085 46.5547 130.085 46.384C130.085 44.6773 129.659 43.504 128.805 42.864C127.995 42.224 127.163 41.904 126.309 41.904C125.115 41.904 124.24 42.2453 123.685 42.928C123.173 43.568 122.917 44.3147 122.917 45.168C122.917 45.6373 122.981 46.1067 123.109 46.576C123.28 47.0453 123.515 47.4933 123.813 47.92L118.309 50.672C117.541 49.648 116.987 48.6027 116.645 47.536C116.304 46.4693 116.133 45.424 116.133 44.4C116.133 42.6507 116.496 41.0507 117.221 39.6C117.989 38.1493 119.099 36.976 120.549 36.08C122.043 35.184 123.856 34.736 125.989 34.736C128.293 34.736 130.405 35.4187 132.325 36.784C134.288 38.1493 135.611 40.1547 136.293 42.8C136.379 42.9707 136.421 43.1627 136.421 43.376C136.421 43.5467 136.421 43.7387 136.421 43.952C136.421 44.976 136.229 46.0213 135.845 47.088C135.461 48.1547 135.013 49.2213 134.501 50.288C134.032 51.3547 133.648 52.3787 133.349 53.36ZM148.453 51.12L142.885 48.112C143.184 47.7707 143.44 47.3013 143.653 46.704C143.867 46.1067 143.973 45.5947 143.973 45.168C143.973 44.272 143.696 43.504 143.141 42.864C142.587 42.224 141.669 41.904 140.389 41.904C139.579 41.904 138.747 42.224 137.893 42.864C137.04 43.504 136.613 44.6773 136.613 46.384C136.613 46.5547 136.613 46.768 136.613 47.024C136.656 47.2373 136.699 47.472 136.741 47.728L133.349 53.36C133.051 52.3787 132.645 51.3547 132.133 50.288C131.621 49.2213 131.173 48.1547 130.789 47.088C130.405 46.0213 130.213 44.976 130.213 43.952C130.213 43.7387 130.213 43.5467 130.213 43.376C130.256 43.1627 130.299 42.9707 130.341 42.8C131.067 40.1547 132.389 38.1493 134.309 36.784C136.272 35.4187 138.384 34.736 140.645 34.736C142.779 34.736 144.592 35.184 146.085 36.08C147.579 36.976 148.731 38.192 149.541 39.728C150.352 41.2213 150.757 42.9067 150.757 44.784C150.757 45.808 150.544 46.896 150.117 48.048C149.733 49.1573 149.179 50.1813 148.453 51.12ZM187.856 32.176C189.947 32.176 191.76 31.408 193.296 29.872C194.875 28.336 195.664 26.2027 195.664 23.472C195.664 21.424 195.344 19.824 194.704 18.672C194.064 17.4773 193.253 16.624 192.272 16.112C191.333 15.5573 190.373 15.216 189.392 15.088C188.411 14.96 187.6 14.896 186.96 14.896L184.784 17.968L186.256 20.656C186.384 20.6133 186.597 20.592 186.896 20.592C187.109 20.592 187.365 20.6133 187.664 20.656C187.963 20.6987 188.261 20.8053 188.56 20.976C188.859 21.1467 189.115 21.424 189.328 21.808C189.541 22.192 189.648 22.7467 189.648 23.472C189.648 24.24 189.477 24.9013 189.136 25.456C188.837 26.0107 188.261 26.288 187.408 26.288C187.237 26.288 187.045 26.288 186.832 26.288C186.619 26.2453 186.405 26.2027 186.192 26.16L185.04 31.728C185.936 32.0267 186.875 32.176 187.856 32.176ZM180.176 40.56H186.96V28.208L186.448 26.736V20.016L186.96 18.864V14.896H180.176V40.56ZM172.112 43.952C172.112 44.976 172.304 46.1493 172.688 47.472C173.072 48.752 173.52 50.0533 174.032 51.376C174.544 52.656 174.949 53.808 175.248 54.832L178.64 47.728C178.597 47.472 178.555 47.2373 178.512 47.024C178.512 46.768 178.512 46.5547 178.512 46.384C178.512 44.6773 178.939 43.504 179.792 42.864C180.645 42.224 181.477 41.904 182.288 41.904C183.568 41.904 184.485 42.224 185.04 42.864C185.595 43.504 185.872 44.272 185.872 45.168C185.872 45.5947 185.765 46.1067 185.552 46.704C185.339 47.3013 185.083 47.7707 184.784 48.112L190.352 51.12C191.077 50.1813 191.632 49.1573 192.016 48.048C192.443 46.896 192.656 45.808 192.656 44.784C192.656 42.9067 192.251 41.2213 191.44 39.728C190.629 38.192 189.477 36.976 187.984 36.08C186.491 35.184 184.677 34.736 182.544 34.736C180.283 34.736 178.171 35.4187 176.208 36.784C174.288 38.1493 172.965 40.1547 172.24 42.8C172.197 42.9707 172.155 43.1627 172.112 43.376C172.112 43.5467 172.112 43.7387 172.112 43.952ZM163.728 61.68C163.728 60.4 163.941 59.248 164.368 58.224C164.837 57.2 165.52 56.3893 166.416 55.792C167.312 55.152 168.421 54.832 169.744 54.832H180.688C182.053 54.832 183.163 55.152 184.016 55.792C184.912 56.3893 185.573 57.2 186 58.224C186.469 59.248 186.704 60.4 186.704 61.68C186.704 63.6 186.149 65.2213 185.04 66.544C183.931 67.824 182.501 68.784 180.752 69.424C179.003 70.064 177.168 70.384 175.248 70.384C173.328 70.384 171.472 70.064 169.68 69.424C167.931 68.784 166.501 67.824 165.392 66.544C164.283 65.2213 163.728 63.6 163.728 61.68ZM155.984 61.68C155.984 64.5387 156.517 67.056 157.584 69.232C158.693 71.3653 160.165 73.1573 162 74.608C163.835 76.016 165.883 77.0827 168.144 77.808C170.448 78.5333 172.816 78.896 175.248 78.896C177.637 78.896 179.984 78.5333 182.288 77.808C184.592 77.0827 186.661 76.016 188.496 74.608C190.331 73.1573 191.781 71.3653 192.848 69.232C193.957 67.056 194.512 64.5387 194.512 61.68C194.512 59.12 194.021 56.7947 193.04 54.704C192.059 52.5707 190.565 50.8853 188.56 49.648C186.597 48.368 184.123 47.728 181.136 47.728H169.296C166.352 47.728 163.877 48.368 161.872 49.648C159.909 50.8853 158.437 52.5707 157.456 54.704C156.475 56.7947 155.984 59.12 155.984 61.68ZM157.776 44.784C157.776 45.808 157.968 46.896 158.352 48.048C158.779 49.1573 159.355 50.1813 160.08 51.12L165.648 48.112C165.349 47.7707 165.093 47.3013 164.88 46.704C164.709 46.1067 164.624 45.5947 164.624 45.168C164.624 44.272 164.901 43.504 165.456 42.864C166.011 42.224 166.928 41.904 168.208 41.904C169.061 41.904 169.893 42.224 170.704 42.864C171.557 43.504 171.984 44.6773 171.984 46.384C171.984 46.5547 171.963 46.768 171.92 47.024C171.92 47.2373 171.899 47.472 171.856 47.728L175.248 54.832C175.547 53.808 175.931 52.656 176.4 51.376C176.912 50.0533 177.36 48.752 177.744 47.472C178.128 46.1493 178.32 44.976 178.32 43.952C178.32 43.7387 178.32 43.5467 178.32 43.376C178.32 43.1627 178.277 42.9707 178.192 42.8C177.509 40.1547 176.187 38.1493 174.224 36.784C172.304 35.4187 170.192 34.736 167.888 34.736C165.797 34.736 163.984 35.184 162.448 36.08C160.955 36.976 159.803 38.192 158.992 39.728C158.181 41.2213 157.776 42.9067 157.776 44.784ZM239.736 92.912V54.192C239.779 52.3147 239.821 50.6293 239.864 49.136C239.907 47.6427 240.12 46.3413 240.504 45.232C240.931 44.08 241.677 43.1413 242.744 42.416C242.829 42.5867 242.893 42.8427 242.936 43.184C243.064 43.6107 243.192 44.08 243.32 44.592C243.448 45.0613 243.555 45.552 243.64 46.064C243.725 46.5333 243.768 47.024 243.768 47.536C243.768 48.4747 243.491 49.2 242.936 49.712C242.424 50.224 241.549 50.48 240.312 50.48C240.184 50.48 240.035 50.48 239.864 50.48C239.736 50.48 239.587 50.48 239.416 50.48L239.352 56.304C239.821 56.3893 240.269 56.4533 240.696 56.496C241.165 56.5387 241.613 56.56 242.04 56.56C243.917 56.56 245.432 56.176 246.584 55.408C247.736 54.64 248.568 53.68 249.08 52.528C249.635 51.3333 249.912 50.1387 249.912 48.944C249.912 47.92 249.827 46.896 249.656 45.872C249.485 44.848 249.315 43.8667 249.144 42.928C248.973 41.9467 248.888 41.0933 248.888 40.368C248.888 39.7707 248.952 39.2587 249.08 38.832C249.251 38.3627 249.549 38.0213 249.976 37.808L246.904 33.264C245.581 33.264 244.28 33.5627 243 34.16C241.763 34.7147 240.632 35.376 239.608 36.144C238.627 36.912 237.816 37.5947 237.176 38.192C236.579 38.7893 236.259 39.1093 236.216 39.152C235.107 40.2187 234.232 41.4347 233.592 42.8C232.995 44.1227 232.568 45.2747 232.312 46.256C232.099 47.2373 231.992 47.728 231.992 47.728L232.184 92.912H239.736ZM212.6 62.192C212.6 65.0933 213.261 67.76 214.584 70.192C215.907 72.5813 217.912 74.48 220.6 75.888C223.288 77.296 226.659 78 230.712 78C233.016 78 235.171 77.7227 237.176 77.168C239.181 76.6133 240.995 75.9093 242.616 75.056C244.28 74.2027 245.709 73.328 246.904 72.432C248.141 71.4933 249.123 70.6613 249.848 69.936L244.856 63.856C244.344 64.3253 243.533 65.0507 242.424 66.032C241.315 66.9707 239.8 67.8453 237.88 68.656C236.003 69.4667 233.613 69.872 230.712 69.872C228.365 69.872 226.445 69.5307 224.952 68.848C223.501 68.1227 222.435 67.184 221.752 66.032C221.112 64.8373 220.792 63.5573 220.792 62.192C220.792 60.8267 221.133 59.5893 221.816 58.48C222.541 57.3707 223.48 56.496 224.632 55.856C225.827 55.1733 227.085 54.832 228.408 54.832C229.304 54.832 230.285 54.832 231.352 54.832C232.419 54.832 233.443 54.832 234.424 54.832C235.405 54.832 236.216 54.832 236.856 54.832C237.496 54.832 237.816 54.832 237.816 54.832C238.285 53.424 238.627 51.9947 238.84 50.544C239.096 49.0933 239.224 47.8133 239.224 46.704C239.224 44.016 238.712 41.776 237.688 39.984C236.664 38.192 235.32 36.848 233.656 35.952C232.035 35.056 230.285 34.608 228.408 34.608C226.317 34.608 224.504 35.056 222.968 35.952C221.475 36.848 220.323 38.064 219.512 39.6C218.701 41.0933 218.296 42.7573 218.296 44.592C218.296 45.616 218.445 46.6187 218.744 47.6C219.085 48.5387 219.597 49.4773 220.28 50.416L225.912 47.536C225.613 47.1947 225.4 46.7893 225.272 46.32C225.144 45.8507 225.08 45.4027 225.08 44.976C225.08 44.1227 225.357 43.376 225.912 42.736C226.509 42.0533 227.341 41.712 228.408 41.712C229.432 41.712 230.307 42.1173 231.032 42.928C231.757 43.7387 232.12 44.8267 232.12 46.192C232.12 46.4053 232.099 46.64 232.056 46.896C232.056 47.1093 232.035 47.3227 231.992 47.536C231.565 47.4933 231.16 47.4507 230.776 47.408C230.435 47.3653 230.072 47.344 229.688 47.344C229.304 47.3013 228.877 47.28 228.408 47.28C225.507 47.28 222.84 47.9413 220.408 49.264C218.019 50.5867 216.12 52.3787 214.712 54.64C213.304 56.9013 212.6 59.4187 212.6 62.192ZM258.775 63.28L262.167 57.968C262.167 54.5547 262.594 51.6747 263.447 49.328C264.3 46.9813 265.282 45.0827 266.391 43.632C267.543 42.1813 268.588 41.072 269.527 40.304C270.508 39.536 271.084 39.0667 271.255 38.896C273.132 36.9333 274.754 35.0773 276.119 33.328C277.527 31.536 278.615 29.68 279.383 27.76C280.151 25.7973 280.535 23.6213 280.535 21.232H272.535C272.535 22.2987 272.45 23.3227 272.279 24.304C272.108 25.2853 271.703 26.3733 271.063 27.568C270.423 28.72 269.42 30.128 268.055 31.792C266.69 33.4133 264.791 35.4187 262.359 37.808C259.543 40.5813 257.431 43.5467 256.023 46.704C254.658 49.8613 253.975 53.5947 253.975 57.904L258.775 63.28ZM262.167 57.968C262.167 56.3467 262.316 54.8107 262.615 53.36C262.914 51.9093 263.404 50.6293 264.087 49.52C264.77 48.4107 265.644 47.536 266.711 46.896C267.778 46.2133 269.079 45.872 270.615 45.872C272.578 45.872 274.135 46.448 275.287 47.6C276.482 48.7093 277.335 50.1813 277.847 52.016C278.402 53.8507 278.679 55.8347 278.679 57.968C278.679 60.144 278.402 62.128 277.847 63.92C277.335 65.712 276.482 67.1627 275.287 68.272C274.135 69.3387 272.578 69.872 270.615 69.872C268.567 69.872 266.924 69.3387 265.687 68.272C264.45 67.1627 263.554 65.712 262.999 63.92C262.444 62.128 262.167 60.144 262.167 57.968ZM253.975 57.904C253.975 61.744 254.572 65.1787 255.767 68.208C256.962 71.2373 258.775 73.6267 261.207 75.376C263.682 77.1253 266.754 78 270.423 78C274.135 78 277.207 77.1253 279.639 75.376C282.114 73.6267 283.948 71.2373 285.143 68.208C286.38 65.1787 286.999 61.744 286.999 57.904C286.999 55.8987 286.828 54 286.487 52.208C286.188 50.416 285.698 48.7733 285.015 47.28C284.076 45.0187 282.924 43.2693 281.559 42.032C280.236 40.7947 278.85 39.9413 277.399 39.472C275.948 38.96 274.54 38.704 273.175 38.704C271.554 38.704 270.103 38.9387 268.823 39.408C267.586 39.8773 266.732 40.3253 266.263 40.752C265.708 41.0507 264.983 41.3493 264.087 41.648C263.191 41.9467 262.274 42.2453 261.335 42.544C260.439 42.8 259.65 43.056 258.967 43.312C258.284 43.568 257.879 43.8027 257.751 44.016C256.94 45.2107 256.236 46.5333 255.639 47.984C255.084 49.4347 254.658 50.992 254.359 52.656C254.103 54.32 253.975 56.0693 253.975 57.904ZM297.586 78L293.81 74.416C294.408 73.7333 295.176 73.0507 296.114 72.368C297.053 71.6427 298.013 70.9387 298.994 70.256C299.293 70.0427 299.613 69.9147 299.954 69.872C300.338 69.8293 300.744 69.808 301.17 69.808C302.066 69.808 303.048 69.9147 304.114 70.128C305.181 70.3413 306.333 70.448 307.57 70.448C311.112 70.448 313.714 69.232 315.378 66.8C317.085 64.3253 317.938 61.0613 317.938 57.008C317.938 54.1067 317.469 51.6747 316.53 49.712C315.592 47.7493 314.333 46.256 312.754 45.232C311.218 44.208 309.512 43.696 307.634 43.696C305.885 43.696 304.392 43.9733 303.154 44.528C301.917 45.0827 300.936 45.808 300.21 46.704C299.528 47.6 299.058 48.6027 298.802 49.712C298.76 50.0107 298.717 50.3307 298.674 50.672C298.632 50.9707 298.61 51.2907 298.61 51.632C298.312 52.6987 298.013 53.744 297.714 54.768C297.416 55.792 297.117 56.8373 296.818 57.904L293.49 61.68C292.808 60.3147 292.274 58.8853 291.89 57.392C291.549 55.856 291.378 54.3413 291.378 52.848C291.378 50.6293 291.741 48.496 292.466 46.448C293.192 44.3573 294.258 42.48 295.666 40.816C297.074 39.152 298.781 37.8293 300.786 36.848C302.792 35.8667 305.074 35.376 307.634 35.376C311.048 35.376 314.162 36.1867 316.978 37.808C319.794 39.3867 322.034 41.776 323.698 44.976C325.405 48.176 326.258 52.1867 326.258 57.008C326.258 60.464 325.768 63.4933 324.786 66.096C323.805 68.6987 322.482 70.896 320.818 72.688C319.154 74.4373 317.298 75.76 315.25 76.656C313.202 77.552 311.112 78 308.978 78C307.442 78 306.162 77.8933 305.138 77.68C304.157 77.424 303.282 77.168 302.514 76.912C301.789 76.656 301 76.528 300.146 76.528C299.677 76.528 299.208 76.6347 298.738 76.848C298.312 77.0613 297.928 77.4453 297.586 78ZM297.586 78L290.162 76.528C290.546 73.712 290.952 71.5147 291.378 69.936C291.805 68.3573 292.338 67.0987 292.978 66.16C293.618 65.2213 294.429 64.3253 295.41 63.472C296.392 62.6187 297.608 61.5307 299.058 60.208L305.33 65.2C304.221 65.968 303.218 66.5867 302.322 67.056C301.469 67.4827 300.722 68.0373 300.082 68.72C299.485 69.4027 298.973 70.448 298.546 71.856C298.12 73.264 297.8 75.312 297.586 78ZM303.154 67.632C300.552 67.632 298.248 66.8213 296.242 65.2C294.28 63.536 293.064 61.4667 292.594 58.992C292.552 58.6507 292.509 58.3093 292.466 57.968C292.424 57.6267 292.402 57.2853 292.402 56.944C292.402 55.5787 292.936 54.2773 294.002 53.04C295.112 51.76 296.456 50.6293 298.034 49.648C298.674 48.7947 299.57 48.112 300.722 47.6C301.917 47.088 303.176 46.832 304.498 46.832C305.736 46.832 306.93 47.088 308.082 47.6C309.277 48.0693 310.28 48.752 311.09 49.648C311.986 50.5867 312.669 51.696 313.138 52.976C313.65 54.2133 313.906 55.536 313.906 56.944C313.906 58.9067 313.416 60.6987 312.434 62.32C311.496 63.9413 310.216 65.2427 308.594 66.224C306.973 67.1627 305.16 67.632 303.154 67.632ZM303.026 59.824C304.008 59.824 304.84 59.4827 305.522 58.8C306.248 58.0747 306.61 57.2213 306.61 56.24C306.61 55.2587 306.248 54.4267 305.522 53.744C304.84 53.0187 304.008 52.656 303.026 52.656C302.045 52.656 301.192 53.0187 300.466 53.744C299.784 54.4267 299.442 55.2587 299.442 56.24C299.442 57.2213 299.784 58.0747 300.466 58.8C301.192 59.4827 302.045 59.824 303.026 59.824ZM337.458 78C335.282 78 333.533 77.7013 332.21 77.104C330.888 76.5067 329.842 75.7813 329.074 74.928C328.306 74.032 327.666 73.136 327.154 72.24C326.642 71.344 326.13 70.5973 325.618 70C325.149 69.4027 324.53 69.104 323.762 69.104C323.165 69.104 322.525 69.2747 321.842 69.616L324.146 62.832C324.402 62.7893 324.68 62.768 324.978 62.768C325.277 62.7253 325.512 62.704 325.682 62.704C326.834 62.704 327.752 62.96 328.434 63.472C329.16 63.9413 329.778 64.5387 330.29 65.264C330.802 65.9893 331.336 66.7147 331.89 67.44C332.445 68.1653 333.128 68.784 333.938 69.296C334.792 69.7653 335.901 70 337.266 70C338.546 70 339.528 69.616 340.21 68.848C340.936 68.0373 341.469 67.0133 341.81 65.776C342.152 64.5387 342.365 63.216 342.45 61.808C342.536 60.4 342.578 59.0773 342.578 57.84C342.578 56.7307 342.557 55.6213 342.514 54.512C342.472 53.4027 342.365 52.4 342.194 51.504C342.066 50.5653 341.832 49.8187 341.49 49.264C341.149 48.7093 340.68 48.432 340.082 48.432C339.57 48.432 339.165 48.5813 338.866 48.88C338.568 49.136 338.333 49.52 338.162 50.032C337.992 50.544 337.864 51.12 337.778 51.76C337.736 52.3573 337.714 53.0187 337.714 53.744V60.656H330.93V53.744C330.93 53.0187 330.888 52.3573 330.802 51.76C330.76 51.12 330.653 50.544 330.482 50.032C330.312 49.52 330.077 49.136 329.778 48.88C329.48 48.5813 329.096 48.432 328.626 48.432C327.944 48.432 327.432 48.7307 327.09 49.328C326.749 49.8827 326.536 50.608 326.45 51.504C326.365 52.4 326.322 53.3813 326.322 54.448C326.365 54.832 326.386 55.1947 326.386 55.536C326.386 55.8773 326.365 56.2187 326.322 56.56C326.322 57.3707 326.301 58.16 326.258 58.928C326.258 59.6533 326.173 60.3147 326.002 60.912H319.666V54.576C319.666 51.6747 320.008 49.1573 320.69 47.024C321.416 44.848 322.418 43.1627 323.698 41.968C325.021 40.7307 326.557 40.112 328.306 40.112C330.013 40.112 331.357 40.5387 332.338 41.392C333.32 42.2027 333.981 43.0347 334.322 43.888C334.664 43.0347 335.474 42.2027 336.754 41.392C338.034 40.5387 339.549 40.112 341.298 40.112C343.602 40.112 345.394 40.6667 346.674 41.776C347.997 42.8427 348.957 44.2507 349.554 46C350.194 47.7493 350.578 49.6693 350.706 51.76C350.877 53.808 350.962 55.8347 350.962 57.84C350.962 59.4613 350.898 61.1893 350.77 63.024C350.642 64.8587 350.344 66.672 349.874 68.464C349.448 70.2133 348.744 71.8133 347.762 73.264C346.824 74.672 345.522 75.824 343.858 76.72C342.194 77.5733 340.061 78 337.458 78ZM315.954 39.536L309.234 36.272C311.112 34.3093 312.584 32.6453 313.65 31.28C314.76 29.872 315.57 28.656 316.082 27.632C316.594 26.608 316.914 25.648 317.042 24.752C317.17 23.856 317.234 22.9173 317.234 21.936H325.298C325.298 24.2827 324.914 26.4373 324.146 28.4C323.378 30.32 322.29 32.176 320.882 33.968C319.474 35.7173 317.832 37.5733 315.954 39.536Z" fill="#338C85"/>
</svg>
