<svg width="81" height="80" viewBox="0 0 81 80" fill="none" xmlns="http://www.w3.org/2000/svg">
<path d="M0.353638 9.90099C0.353638 4.43282 4.78646 0 10.2546 0H70.4526C75.9208 0 80.3536 4.43282 80.3536 9.90099V70.099C80.3536 75.5672 75.9208 80 70.4526 80H10.2546C4.78646 80 0.353638 75.5672 0.353638 70.099V9.90099Z" fill="#338C85"/>
<path d="M30.6159 70.1485C27.8378 70.1485 25.5542 69.4886 23.7649 68.1686C21.9756 66.8061 20.6572 65.0178 19.8097 62.8037C18.9622 60.5471 18.5384 58.0775 18.5384 55.395C18.5384 54.2028 18.6326 53.0106 18.8209 51.8184C19.0563 50.5837 19.3859 49.4553 19.8097 48.4334C20.2806 47.369 20.7514 46.5387 21.2223 45.9426H17.4083V40.1945H48.9087C50.18 40.1945 51.3571 40.4074 52.4401 40.8332C53.5701 41.2589 54.5825 41.7912 55.4771 42.4299C56.6543 43.324 57.6195 44.4311 58.3729 45.751C59.1263 47.0709 59.6677 48.5612 59.9973 50.2217C60.374 51.8397 60.5624 53.5642 60.5624 55.395C60.5624 58.0775 60.1386 60.5471 59.2911 62.8037C58.4435 65.0178 57.1251 66.8061 55.3359 68.1686C53.5937 69.4886 51.31 70.1485 48.4849 70.1485C47.2136 70.1485 46.06 69.9569 45.0241 69.5737C44.0353 69.1905 43.1642 68.7009 42.4108 68.1048C41.7045 67.4661 41.116 66.7635 40.6451 65.9971C40.1743 65.2307 39.8211 64.4643 39.5857 63.6979C39.3032 64.4643 38.9265 65.2307 38.4556 65.9971C37.9848 66.7635 37.3727 67.4661 36.6193 68.1048C35.913 68.7009 35.0655 69.1905 34.0767 69.5737C33.0879 69.9569 31.9343 70.1485 30.6159 70.1485ZM30.6159 63.4424C31.8401 63.4424 32.8289 63.1444 33.5823 62.5483C34.3356 61.9096 34.9242 61.0793 35.348 60.0574C35.7718 58.9929 36.0778 57.822 36.2662 56.5447C36.4545 55.2673 36.5487 53.9474 36.5487 52.5849H42.5521C42.5992 53.9474 42.6933 55.2673 42.8346 56.5447C43.0229 57.822 43.329 58.9929 43.7528 60.0574C44.1765 61.0793 44.7651 61.9096 45.5185 62.5483C46.2719 63.1444 47.2607 63.4424 48.4849 63.4424C50.2271 63.4424 51.4984 62.6547 52.2988 61.0793C53.1464 59.5039 53.5701 57.6091 53.5701 55.395C53.5701 54.4157 53.476 53.3938 53.2876 52.3294C53.0993 51.2649 52.7932 50.2643 52.3695 49.3276C51.9457 48.3483 51.3571 47.5606 50.6037 46.9645C49.8975 46.3258 49.0028 46.0065 47.9199 46.0065H31.534C30.3569 46.0065 29.3681 46.3258 28.5676 46.9645C27.8143 47.5606 27.2022 48.3483 26.7313 49.3276C26.3075 50.2643 26.0015 51.2862 25.8131 52.3933C25.6248 53.4577 25.5306 54.4583 25.5306 55.395C25.5306 57.6091 25.9308 59.5039 26.7313 61.0793C27.5318 62.6547 28.8266 63.4424 30.6159 63.4424ZM39.5857 44.793L36.478 40.3222C36.5251 39.939 36.5487 39.5771 36.5487 39.2365C36.5957 38.8958 36.6193 38.5552 36.6193 38.2146C36.6193 36.2985 36.0778 34.936 34.9948 34.127C33.9119 33.318 32.7583 32.9135 31.534 32.9135C30.1215 32.9135 28.9914 33.2967 28.1439 34.0632C27.3434 34.787 26.9432 35.745 26.9432 36.9372C26.9432 37.7036 27.0844 38.4062 27.367 39.0449C27.6495 39.641 27.9791 40.1519 28.3558 40.5777L23.4824 42.9408C22.7761 42.0892 22.164 41.1099 21.646 40.0029C21.1281 38.8958 20.8691 37.7036 20.8691 36.4263C20.8691 34.638 21.2929 33.0413 22.1404 31.6362C22.988 30.2311 24.1887 29.124 25.7425 28.3151C27.3434 27.5061 29.1798 27.1016 31.2515 27.1016C33.7471 27.1016 36.0072 27.7615 38.0319 29.0815C40.1036 30.4014 41.4927 32.3813 42.1989 35.0212C42.2931 35.2341 42.3402 35.4683 42.3402 35.7237C42.3402 35.9792 42.3402 36.2347 42.3402 36.4901C42.3402 37.4695 42.1754 38.4275 41.8458 39.3642C41.5162 40.2584 41.116 41.1525 40.6451 42.0467C40.2213 42.9408 39.8682 43.8562 39.5857 44.793ZM55.4065 43.5795L50.4625 40.9609C50.9804 40.5351 51.4042 39.939 51.7338 39.1726C52.1105 38.4062 52.2988 37.6611 52.2988 36.9372C52.2988 35.745 51.8751 34.787 51.0275 34.0632C50.2271 33.2967 49.0735 32.9135 47.5667 32.9135C46.3896 32.9135 45.236 33.318 44.1059 34.127C43.0229 34.936 42.4815 36.2985 42.4815 38.2146C42.4815 38.5552 42.4815 38.8958 42.4815 39.2365C42.5285 39.5771 42.5756 39.939 42.6227 40.3222L39.5857 44.793C39.2561 43.8562 38.8559 42.9408 38.385 42.0467C37.9141 41.1525 37.5139 40.2584 37.1843 39.3642C36.8547 38.4275 36.6899 37.4695 36.6899 36.4901C36.6899 36.2347 36.6899 35.9792 36.6899 35.7237C36.737 35.4683 36.7841 35.2341 36.8312 35.0212C37.5845 32.3813 38.9736 30.4014 40.9983 29.0815C43.07 27.7615 45.3301 27.1016 47.7786 27.1016C49.8975 27.1016 51.7338 27.5061 53.2876 28.3151C54.8885 29.124 56.1363 30.2524 57.0309 31.7C57.9256 33.1477 58.3729 34.8083 58.3729 36.6817C58.3729 37.8739 58.1139 39.0874 57.596 40.3222C57.078 41.557 56.3482 42.6428 55.4065 43.5795Z" fill="#D9F0ED"/>
<path fill-rule="evenodd" clip-rule="evenodd" d="M23.2595 68.7201L23.2548 68.7165C21.3448 67.262 19.9504 65.3606 19.0613 63.038L19.0598 63.034C18.1811 60.6945 17.7464 58.1461 17.7464 55.395C17.7464 54.1686 17.8433 52.9425 18.0369 51.7171L18.0385 51.7069L18.0404 51.6967C18.2831 50.424 18.6246 49.2515 19.0681 48.1819L19.0712 48.1746L19.0744 48.1674C19.3206 47.6107 19.5709 47.1067 19.8264 46.6588H16.6163V39.4782H20.5875C20.2462 38.5116 20.0771 37.4931 20.0771 36.4262C20.0771 34.5324 20.527 32.8153 21.4452 31.2932C22.3635 29.7707 23.6688 28.5682 25.3474 27.6943L25.3518 27.692L25.3562 27.6897C27.0898 26.8137 29.0624 26.3853 31.2516 26.3853C33.912 26.3853 36.333 27.0918 38.4916 28.4981C38.8562 28.7306 39.2005 28.9815 39.5248 29.2505C39.8427 28.9824 40.1795 28.7323 40.5351 28.5004L40.5386 28.4981L40.5421 28.4959C42.7425 27.0941 45.1609 26.3853 47.7787 26.3853C50.009 26.3853 51.9852 26.8114 53.6785 27.692C55.4053 28.5655 56.7572 29.7886 57.7225 31.3506C58.6913 32.9183 59.165 34.702 59.165 36.6817C59.165 37.9696 58.885 39.269 58.3366 40.5762C57.9999 41.3791 57.5776 42.1256 57.0697 42.8142C57.8516 43.5771 58.5204 44.4476 59.0768 45.4224C59.8694 46.811 60.433 48.3672 60.7749 50.0846C61.1624 51.7529 61.3545 53.5237 61.3545 55.395C61.3545 58.1461 60.9198 60.6945 60.0411 63.034L60.0397 63.038C59.1506 65.3606 57.7561 67.262 55.8461 68.7165L55.8446 68.7176C53.9278 70.1699 51.4495 70.8647 48.485 70.8647C47.1247 70.8647 45.8674 70.6595 44.7243 70.2366L44.7182 70.2344L44.7122 70.232C43.6527 69.8214 42.7097 69.2929 41.8893 68.6437L41.8695 68.628L41.8508 68.6112C41.0941 67.9269 40.4605 67.1712 39.9528 66.3449C39.8098 66.1121 39.6766 65.8786 39.5534 65.6445C39.4264 65.8784 39.2913 66.1119 39.1481 66.3449C38.6348 67.1804 37.9705 67.9411 37.1611 68.6272L37.1598 68.6283C36.3794 69.287 35.4523 69.8199 34.3888 70.232C33.2818 70.661 32.0181 70.8647 30.616 70.8647C27.6939 70.8647 25.2221 70.1679 23.2643 68.7236L23.2595 68.7201ZM39.1356 64.7565C39.3056 64.4036 39.4557 64.0507 39.5858 63.6978C39.6953 64.0543 39.8302 64.4107 39.9906 64.7671C40.1751 65.1771 40.3933 65.5871 40.6452 65.9971C41.1161 66.7635 41.7046 67.466 42.4109 68.1047C43.1643 68.7008 44.0354 69.1905 45.0242 69.5737C46.0601 69.9569 47.2137 70.1485 48.485 70.1485C51.3101 70.1485 53.5938 69.4885 55.3359 68.1686C57.1252 66.8061 58.4436 65.0178 59.2911 62.8037C60.1387 60.547 60.5625 58.0774 60.5625 55.395C60.5625 53.5641 60.3741 51.8397 59.9974 50.2217C59.6678 48.5611 59.1263 47.0709 58.373 45.7509C57.8741 44.8769 57.2823 44.0961 56.5975 43.4088C56.4183 43.2288 56.2326 43.0552 56.0406 42.8881C56.2014 42.6956 56.3544 42.4977 56.4996 42.2943C56.9344 41.6856 57.2999 41.0283 57.5961 40.3222C58.114 39.0874 58.373 37.8739 58.373 36.6817C58.373 34.8082 57.9257 33.1477 57.031 31.7C56.1364 30.2523 54.8886 29.124 53.2877 28.315C51.7339 27.506 49.8975 27.1015 47.7787 27.1015C45.3302 27.1015 43.0701 27.7615 40.9983 29.0814C40.679 29.2896 40.3755 29.5142 40.0878 29.7552C39.8943 29.9173 39.708 30.0868 39.5289 30.2637C39.3487 30.0881 39.1611 29.9199 38.9658 29.759C38.6717 29.5165 38.3604 29.2907 38.0319 29.0814C36.0073 27.7615 33.7471 27.1015 31.2516 27.1015C29.1798 27.1015 27.3435 27.506 25.7426 28.315C24.1888 29.124 22.9881 30.231 22.1405 31.6361C21.293 33.0412 20.8692 34.6379 20.8692 36.4262C20.8692 37.5042 21.0536 38.5215 21.4225 39.4782C21.4907 39.6551 21.5653 39.83 21.6461 40.0028C21.6762 40.0671 21.7066 40.131 21.7373 40.1944H17.4084V45.9425H21.2224C21.0567 46.1523 20.891 46.3911 20.7253 46.6588C20.4201 47.152 20.115 47.7435 19.8098 48.4334C19.386 49.4553 19.0564 50.5836 18.821 51.8184C18.6326 53.0106 18.5385 54.2028 18.5385 55.395C18.5385 58.0774 18.9622 60.547 19.8098 62.8037C20.6573 65.0178 21.9757 66.8061 23.765 68.1686C25.5542 69.4885 27.8379 70.1485 30.616 70.1485C31.9343 70.1485 33.0879 69.9569 34.0767 69.5737C35.0655 69.1905 35.9131 68.7008 36.6194 68.1047C37.3727 67.466 37.9849 66.7635 38.4557 65.9971C38.7098 65.5836 38.9364 65.17 39.1356 64.7565ZM50.1176 40.2618C50.3635 40.2899 50.6055 40.3268 50.8437 40.3725C50.8839 40.3802 50.924 40.3882 50.9641 40.3964C50.9791 40.3995 50.994 40.4026 51.009 40.4057C51.1645 40.2127 51.3087 39.9991 51.4414 39.7648C51.546 39.5802 51.6435 39.3828 51.7339 39.1725C52.1106 38.4061 52.2989 37.661 52.2989 36.9372C52.2989 35.745 51.8751 34.787 51.0276 34.0631C50.2271 33.2967 49.0735 32.9135 47.5668 32.9135C46.3897 32.9135 45.2361 33.318 44.106 34.127C43.6902 34.4376 43.3543 34.8297 43.0981 35.3035C43.0259 35.4371 42.96 35.5771 42.9005 35.7237C42.8037 35.962 42.7236 36.2175 42.6604 36.4901C42.5412 37.004 42.4815 37.5788 42.4815 38.2145V39.2364C42.4925 39.3158 42.5035 39.3964 42.5145 39.4782C42.5181 39.5052 42.5217 39.5324 42.5254 39.5597C42.5258 39.5629 42.5262 39.5661 42.5267 39.5694C42.5335 39.6209 42.5404 39.6728 42.5472 39.7252C42.5671 39.8778 42.5871 40.0342 42.607 40.1944H48.9087C49.3216 40.1944 49.7246 40.2169 50.1176 40.2618ZM43.3123 39.4782H48.9087C49.5007 39.4782 50.0766 39.521 50.6357 39.6074C50.764 39.4024 50.8844 39.1717 50.9957 38.9129L51.0025 38.8971L51.0101 38.8816C51.3488 38.1924 51.5068 37.5461 51.5068 36.9372C51.5068 35.9137 51.1514 35.1541 50.4837 34.5838L50.4673 34.5698L50.4517 34.5549C49.8415 33.9706 48.9228 33.6298 47.5668 33.6298C46.6075 33.6298 45.6243 33.9552 44.6043 34.6838C43.784 35.3002 43.2736 36.4062 43.2736 38.2145V39.1919C43.2865 39.2858 43.2994 39.3812 43.3123 39.4782ZM35.976 35.2548C35.7234 34.8028 35.3964 34.4269 34.9949 34.127C33.912 33.318 32.7583 32.9135 31.5341 32.9135C30.1216 32.9135 28.9915 33.2967 28.1439 34.0631C27.3435 34.787 26.9433 35.745 26.9433 36.9372C26.9433 37.7036 27.0845 38.4061 27.367 39.0448C27.438 39.1946 27.512 39.3391 27.589 39.4782C27.6876 39.6563 27.7911 39.8257 27.8994 39.9862C27.9475 40.0573 27.9965 40.1268 28.0464 40.1944H36.493C36.5064 40.0735 36.5174 39.9547 36.5259 39.8381C36.5329 39.7432 36.5382 39.6498 36.542 39.5578C36.5421 39.5548 36.5423 39.5518 36.5424 39.5489C36.5433 39.5252 36.5442 39.5016 36.5449 39.4782C36.5475 39.3964 36.5487 39.3158 36.5487 39.2364C36.5958 38.8958 36.6194 38.5552 36.6194 38.2145C36.6194 37.5788 36.5598 37.004 36.4405 36.4901C36.3773 36.2175 36.2972 35.962 36.2004 35.7237C36.1897 35.6972 36.1787 35.671 36.1676 35.6449C36.1093 35.5091 36.0455 35.3791 35.976 35.2548ZM31.5341 46.0064C30.357 46.0064 29.3682 46.3258 28.5677 46.9644C27.8144 47.5605 27.2022 48.3482 26.7314 49.3275C26.3076 50.2643 26.0016 51.2862 25.8132 52.3932C25.6249 53.4577 25.5307 54.4583 25.5307 55.395C25.5307 57.6091 25.9309 59.5038 26.7314 61.0792C27.5318 62.6546 28.8267 63.4424 30.616 63.4424C31.8402 63.4424 32.829 63.1443 33.5823 62.5482C34.3357 61.9095 34.9243 61.0792 35.3481 60.0574C35.7718 58.9929 36.0779 57.822 36.2662 56.5446C36.4546 55.2673 36.5487 53.9473 36.5487 52.5848H42.5522C42.5993 53.9473 42.6934 55.2673 42.8347 56.5446C43.023 57.822 43.3291 58.9929 43.7529 60.0574C44.1766 61.0792 44.7652 61.9095 45.5186 62.5482C46.2719 63.1443 47.2607 63.4424 48.485 63.4424C50.2271 63.4424 51.4985 62.6546 52.2989 61.0792C53.1465 59.5038 53.5702 57.6091 53.5702 55.395C53.5702 54.4157 53.4761 53.3938 53.2877 52.3293C53.0994 51.2649 52.7933 50.2643 52.3695 49.3275C51.9458 48.3482 51.3572 47.5605 50.6038 46.9644C49.8975 46.3258 49.0029 46.0064 47.9199 46.0064H31.5341ZM46.0501 62.017C46.6278 62.4699 47.4142 62.7261 48.485 62.7261C49.2179 62.7261 49.8103 62.5625 50.2974 62.2607C50.7891 61.956 51.2243 61.4787 51.5792 60.7802L51.5828 60.773L51.5866 60.7659C52.3697 59.3104 52.7781 57.5283 52.7781 55.395C52.7781 54.4572 52.688 53.4732 52.5056 52.4425C52.3262 51.4287 52.0358 50.4815 51.6364 49.5987L51.6341 49.5937L51.6319 49.5885C51.247 48.6989 50.7256 48.0125 50.0822 47.5035L50.0624 47.4878L50.0437 47.4709C49.4993 46.9785 48.8124 46.7227 47.9199 46.7227H31.5341C30.5286 46.7227 29.7323 46.9905 29.0918 47.5015L29.0893 47.5035C28.4403 48.017 27.8932 48.71 27.4612 49.6059C27.0651 50.4834 26.7754 51.4478 26.5961 52.5021L26.5954 52.5064C26.4127 53.5389 26.3228 54.5013 26.3228 55.395C26.3228 57.5334 26.7096 59.3208 27.4511 60.7802C27.8044 61.4756 28.2432 61.952 28.745 62.2573C29.2433 62.5604 29.8551 62.7261 30.616 62.7261C31.6867 62.7261 32.4731 62.47 33.0508 62.017C33.6959 61.4672 34.2186 60.7395 34.6046 59.8102C35.006 58.8009 35.2995 57.6819 35.4811 56.45C35.6646 55.2057 35.7567 53.9175 35.7567 52.5848V51.8685H43.3199L43.3439 52.5624C43.3903 53.9054 43.4829 55.2051 43.6215 56.4616C43.8033 57.6889 44.0962 58.8041 44.4963 59.8102C44.8824 60.7394 45.4051 61.4672 46.0501 62.017ZM35.7525 39.4782C35.7553 39.396 35.7567 39.3154 35.7567 39.2364V39.1918L35.7628 39.1476C35.8058 38.8362 35.8273 38.5252 35.8273 38.2145C35.8273 36.4017 35.3144 35.2947 34.4905 34.6792C33.5274 33.9597 32.5475 33.6298 31.5341 33.6298C30.2913 33.6298 29.3767 33.9613 28.704 34.5696C28.0766 35.137 27.7353 35.9011 27.7353 36.9372C27.7353 37.6195 27.8602 38.2279 28.099 38.7708C28.2208 39.0271 28.3504 39.2626 28.4873 39.4782H35.7525Z" fill="#D9F0ED"/>
<path d="M16.5914 21.7822L16.5914 5.5446L24.5122 5.5446L24.5122 21.7822L16.5914 21.7822Z" fill="#D9F0ED"/>
<path fill-rule="evenodd" clip-rule="evenodd" d="M39.6658 5.54454L7.0863 27.2615V36.7808L39.615 15.0977L71.2447 36.7138V27.12L39.6744 5.54443L39.67 5.5508L39.6658 5.54454Z" fill="#D9F0ED"/>
</svg>
