<?xml version="1.0" encoding="UTF-8"?>
<svg id="Layer_1" data-name="Layer 1" xmlns="http://www.w3.org/2000/svg" xmlns:xlink="http://www.w3.org/1999/xlink" viewBox="0 0 80 80">
  <defs>
    <style>
      .cls-1, .cls-2 {
        fill: #e2e8f0;
      }

      .cls-2 {
        fill-rule: evenodd;
      }

      .cls-3 {
        clip-path: url(#clippath);
      }

      .cls-4 {
        fill: none;
      }

      .cls-5 {
        fill: #10b981;
      }
    </style>
    <clipPath id="clippath">
      <rect class="cls-4" y="0" width="80" height="80"/>
    </clipPath>
  </defs>
  <g class="cls-3">
    <g>
      <path class="cls-5" d="m.35,9.9C.35,4.43,4.78,0,10.25,0h60.2C75.92,0,80.35,4.43,80.35,9.9v60.2c0,5.47-4.43,9.9-9.9,9.9H10.25c-5.47,0-9.9-4.43-9.9-9.9V9.9Z"/>
      <path class="cls-1" d="m31.41,71.94c-2.74,0-5-.66-6.77-1.98-1.77-1.36-3.07-3.15-3.91-5.36-.84-2.26-1.26-4.73-1.26-7.41,0-1.19.09-2.38.28-3.58.23-1.23.56-2.36.98-3.38.47-1.06.93-1.89,1.4-2.49h-3.77v-5.75h31.11c1.26,0,2.42.21,3.49.64,1.12.43,2.12.96,3,1.6,1.16.89,2.12,2,2.86,3.32.74,1.32,1.28,2.81,1.6,4.47.37,1.62.56,3.34.56,5.17,0,2.68-.42,5.15-1.26,7.41-.84,2.21-2.14,4-3.91,5.36-1.72,1.32-3.98,1.98-6.77,1.98-1.26,0-2.39-.19-3.42-.57-.98-.38-1.84-.87-2.58-1.47-.7-.64-1.28-1.34-1.74-2.11-.47-.77-.81-1.53-1.05-2.3-.28.77-.65,1.53-1.12,2.3-.47.77-1.07,1.47-1.81,2.11-.7.6-1.53,1.09-2.51,1.47-.98.38-2.12.57-3.42.57Zm0-6.71c1.21,0,2.19-.3,2.93-.89.74-.64,1.33-1.47,1.74-2.49.42-1.06.72-2.24.91-3.51.19-1.28.28-2.6.28-3.96h5.93c.05,1.36.14,2.68.28,3.96.19,1.28.49,2.45.91,3.51.42,1.02,1,1.85,1.74,2.49.74.6,1.72.89,2.93.89,1.72,0,2.98-.79,3.77-2.36.84-1.58,1.26-3.47,1.26-5.68,0-.98-.09-2-.28-3.07-.19-1.06-.49-2.07-.91-3-.42-.98-1-1.77-1.74-2.36-.7-.64-1.58-.96-2.65-.96h-16.18c-1.16,0-2.14.32-2.93.96-.74.6-1.35,1.38-1.81,2.36-.42.94-.72,1.96-.91,3.07-.19,1.06-.28,2.06-.28,3,0,2.21.4,4.11,1.19,5.68.79,1.58,2.07,2.36,3.84,2.36Zm8.86-18.65l-3.07-4.47c.05-.38.07-.75.07-1.09.05-.34.07-.68.07-1.02,0-1.92-.53-3.28-1.6-4.09-1.07-.81-2.21-1.21-3.42-1.21-1.4,0-2.51.38-3.35,1.15-.79.72-1.19,1.68-1.19,2.87,0,.77.14,1.47.42,2.11.28.6.6,1.11.98,1.53l-4.81,2.36c-.7-.85-1.3-1.83-1.81-2.94-.51-1.11-.77-2.3-.77-3.58,0-1.79.42-3.38,1.26-4.79.84-1.41,2.02-2.51,3.56-3.32,1.58-.81,3.39-1.21,5.44-1.21,2.46,0,4.7.66,6.7,1.98,2.05,1.32,3.42,3.3,4.12,5.94.09.21.14.45.14.7v.77c0,.98-.16,1.94-.49,2.87-.33.89-.72,1.79-1.19,2.68-.42.89-.77,1.81-1.05,2.75Zm15.63-1.21l-4.88-2.62c.51-.43.93-1.02,1.26-1.79.37-.77.56-1.51.56-2.24,0-1.19-.42-2.15-1.26-2.87-.79-.77-1.93-1.15-3.42-1.15-1.16,0-2.3.4-3.42,1.21-1.07.81-1.6,2.17-1.6,4.09v1.02c.05.34.09.7.14,1.09l-3,4.47c-.33-.94-.72-1.85-1.19-2.75-.47-.89-.86-1.79-1.19-2.68-.33-.94-.49-1.89-.49-2.87v-.77c.05-.26.09-.49.14-.7.74-2.64,2.12-4.62,4.12-5.94,2.05-1.32,4.28-1.98,6.7-1.98,2.09,0,3.91.4,5.44,1.21,1.58.81,2.81,1.94,3.7,3.38.88,1.45,1.33,3.11,1.33,4.98,0,1.19-.26,2.41-.77,3.64-.51,1.23-1.23,2.32-2.16,3.26Z"/>
      <path class="cls-2" d="m24.15,70.52h0c-1.89-1.46-3.26-3.36-4.14-5.68h0c-.87-2.34-1.3-4.89-1.3-7.64,0-1.23.1-2.45.29-3.68h0s0-.02,0-.02c.24-1.27.58-2.45,1.01-3.51h0s0-.01,0-.01c.24-.56.49-1.06.74-1.51h-3.17v-7.18h3.92c-.34-.97-.5-1.99-.5-3.05,0-1.89.44-3.61,1.35-5.13.91-1.52,2.2-2.73,3.85-3.6h0c1.71-.88,3.66-1.31,5.82-1.31,2.63,0,5.02.71,7.15,2.11.36.23.7.48,1.02.75.31-.27.65-.52,1-.75h0s0,0,0,0c2.17-1.4,4.56-2.11,7.15-2.11,2.2,0,4.15.43,5.83,1.31,1.71.87,3.04,2.1,3.99,3.66.96,1.57,1.42,3.35,1.42,5.33,0,1.29-.28,2.59-.82,3.89-.33.8-.75,1.55-1.25,2.24.77.76,1.43,1.63,1.98,2.61.78,1.39,1.34,2.94,1.68,4.66.38,1.67.57,3.44.57,5.31,0,2.75-.43,5.3-1.3,7.64h0c-.88,2.33-2.26,4.23-4.14,5.68h0c-1.89,1.45-4.34,2.15-7.27,2.15-1.34,0-2.59-.21-3.71-.63h0s0,0,0,0c-1.05-.41-1.98-.94-2.79-1.59l-.02-.02-.02-.02c-.75-.68-1.37-1.44-1.87-2.27-.14-.23-.27-.47-.39-.7-.13.23-.26.47-.4.7-.51.84-1.16,1.6-1.96,2.28h0c-.77.66-1.69,1.19-2.74,1.6-1.09.43-2.34.63-3.73.63-2.89,0-5.33-.7-7.26-2.14h0Zm15.68-3.97c.17-.35.32-.71.44-1.06.11.36.24.71.4,1.07.18.41.4.82.65,1.23.47.77,1.05,1.47,1.74,2.11.74.6,1.6,1.09,2.58,1.47,1.02.38,2.16.57,3.42.57,2.79,0,5.05-.66,6.77-1.98,1.77-1.36,3.07-3.15,3.91-5.36.84-2.26,1.26-4.73,1.26-7.41,0-1.83-.19-3.56-.56-5.17-.33-1.66-.86-3.15-1.6-4.47-.49-.87-1.08-1.65-1.75-2.34-.18-.18-.36-.35-.55-.52.16-.19.31-.39.45-.59.43-.61.79-1.27,1.08-1.97.51-1.23.77-2.45.77-3.64,0-1.87-.44-3.53-1.33-4.98-.88-1.45-2.12-2.58-3.7-3.38-1.53-.81-3.35-1.21-5.44-1.21-2.42,0-4.65.66-6.7,1.98-.32.21-.62.43-.9.67-.19.16-.38.33-.55.51-.18-.18-.36-.34-.56-.5-.29-.24-.6-.47-.92-.68-2-1.32-4.23-1.98-6.7-1.98-2.05,0-3.86.4-5.44,1.21-1.53.81-2.72,1.92-3.56,3.32-.84,1.41-1.26,3-1.26,4.79,0,1.08.18,2.1.55,3.05.07.18.14.35.22.52.03.06.06.13.09.19h-4.28v5.75h3.77c-.16.21-.33.45-.49.72-.3.49-.6,1.08-.9,1.77-.42,1.02-.74,2.15-.98,3.38-.19,1.19-.28,2.38-.28,3.58,0,2.68.42,5.15,1.26,7.41.84,2.21,2.14,4,3.91,5.36,1.77,1.32,4.02,1.98,6.77,1.98,1.3,0,2.44-.19,3.42-.57.98-.38,1.81-.87,2.51-1.47.74-.64,1.35-1.34,1.81-2.11.25-.41.47-.83.67-1.24Zm10.85-24.49c.24.03.48.06.72.11.04,0,.08.02.12.02.01,0,.03,0,.04,0,.15-.19.3-.41.43-.64.1-.18.2-.38.29-.59.37-.77.56-1.51.56-2.24,0-1.19-.42-2.15-1.26-2.87-.79-.77-1.93-1.15-3.42-1.15-1.16,0-2.3.4-3.42,1.21-.41.31-.74.7-1,1.18-.07.13-.14.27-.2.42-.1.24-.17.49-.24.77-.12.51-.18,1.09-.18,1.72v1.02c.01.08.02.16.03.24,0,.03,0,.05.01.08,0,0,0,0,0,0,0,.05.01.1.02.16.02.15.04.31.06.47h6.22c.41,0,.81.02,1.19.07Zm-6.72-.78h5.53c.58,0,1.15.04,1.71.13.13-.21.25-.44.36-.69v-.02s.01-.02.01-.02c.33-.69.49-1.34.49-1.94,0-1.02-.35-1.78-1.01-2.35h-.02s-.02-.03-.02-.03c-.6-.58-1.51-.93-2.85-.93-.95,0-1.92.33-2.93,1.05-.81.62-1.31,1.72-1.31,3.53v.98c.01.09.03.19.04.29Zm-7.25-4.22c-.25-.45-.57-.83-.97-1.13-1.07-.81-2.21-1.21-3.42-1.21-1.4,0-2.51.38-3.35,1.15-.79.72-1.19,1.68-1.19,2.87,0,.77.14,1.47.42,2.11.07.15.14.29.22.43.1.18.2.35.31.51.05.07.1.14.15.21h8.34c.01-.12.02-.24.03-.36,0-.09.01-.19.02-.28,0,0,0,0,0,0,0-.02,0-.05,0-.07,0-.08,0-.16,0-.24.05-.34.07-.68.07-1.02,0-.64-.06-1.21-.18-1.72-.06-.27-.14-.53-.24-.77-.01-.03-.02-.05-.03-.08-.06-.14-.12-.27-.19-.39Zm-4.39,10.75c-1.16,0-2.14.32-2.93.96-.74.6-1.35,1.38-1.81,2.36-.42.94-.72,1.96-.91,3.07-.19,1.06-.28,2.06-.28,3,0,2.21.4,4.11,1.19,5.68.79,1.58,2.07,2.36,3.84,2.36,1.21,0,2.19-.3,2.93-.89.74-.64,1.33-1.47,1.74-2.49.42-1.06.72-2.24.91-3.51.19-1.28.28-2.6.28-3.96h5.93c.05,1.36.14,2.68.28,3.96.19,1.28.49,2.45.91,3.51.42,1.02,1,1.85,1.74,2.49.74.6,1.72.89,2.93.89,1.72,0,2.98-.79,3.77-2.36.84-1.58,1.26-3.47,1.26-5.68,0-.98-.09-2-.28-3.07-.19-1.06-.49-2.07-.91-3-.42-.98-1-1.77-1.74-2.36-.7-.64-1.58-.96-2.65-.96h-16.18Zm14.34,16.01c.57.45,1.35.71,2.4.71.72,0,1.31-.16,1.79-.47.49-.3.92-.78,1.27-1.48h0s0-.01,0-.01c.77-1.46,1.18-3.24,1.18-5.37,0-.94-.09-1.92-.27-2.95-.18-1.01-.46-1.96-.86-2.84h0s0-.01,0-.01c-.38-.89-.9-1.58-1.53-2.08l-.02-.02-.02-.02c-.54-.49-1.22-.75-2.1-.75h-16.18c-.99,0-1.78.27-2.41.78h0c-.64.52-1.18,1.21-1.61,2.1-.39.88-.68,1.84-.85,2.9h0c-.18,1.04-.27,2-.27,2.89,0,2.14.38,3.93,1.11,5.39.35.7.78,1.17,1.28,1.48.49.3,1.1.47,1.85.47,1.06,0,1.83-.26,2.4-.71.64-.55,1.15-1.28,1.53-2.21.4-1.01.69-2.13.87-3.36.18-1.24.27-2.53.27-3.87v-.72h7.47l.02.69c.05,1.34.14,2.64.27,3.9.18,1.23.47,2.34.86,3.35.38.93.9,1.66,1.53,2.21Zm-10.17-22.54c0-.08,0-.16,0-.24v-.09c.05-.31.07-.62.07-.93,0-1.81-.51-2.92-1.32-3.54-.95-.72-1.92-1.05-2.92-1.05-1.23,0-2.13.33-2.8.94-.62.57-.96,1.33-.96,2.37,0,.68.12,1.29.36,1.83.12.26.25.49.38.71h7.18Z"/>
      <path class="cls-1" d="m17.56,23.58V7.34h7.82v16.24h-7.82Z"/>
      <path class="cls-2" d="m40.35,7.34L8.17,29.06v9.52l32.13-21.68,31.24,21.62v-9.59L40.36,7.34h0s0,0,0,0Z"/>
    </g>
  </g>
</svg>